{"title":"Django.Livre.Unchained2012DVDSCR.XviD-YanKeeS","uid":8006567,"size":1004233646,"categoryP":"video","categoryS":"movies","magnet":"?xt=urn:btih:bad77af8bc07bb63bc87ea32c7e111899292047a&amp;dn=Django.Livre.Unchained2012DVDSCR.XviD-YanKeeS&amp;tr=udp%3A%2F%2Ftracker.openbittorrent.com%3A80&amp;tr=udp%3A%2F%2Fopen.demonii.com%3A1337&amp;tr=udp%3A%2F%2Ftracker.coppersurfer.tk%3A6969&amp;tr=udp%3A%2F%2Fexodus.desync.com%3A6969","seeders":5,"leechers":0,"uploader":"mm_0111","files":1,"time":1357901716,"description":"Django.Unchained.2012.DVDSCR.XviD-YanKeeS\n\n\nFormat                                   : AVI\nFormat/Info                              : Audio Video Interleave\nFormat profile                           : OpenDML\nFile size                                : 958 MiB\nDuration                                 : 2h 45mn\nOverall bit rate                         : 810 Kbps\nWriting application                      : AVI-Mux GUI 1.16.11, Dec 15 2004  14:51:34\n\nVideo\nID                                       : 0\nFormat                                   : MPEG-4 Visual\nFormat profile                           : Advanced Simple@L5\nFormat settings, BVOP                    : 2\nFormat settings, QPel                    : No\nFormat settings, GMC                     : No warppoints\nFormat settings, Matrix                  : Default (H.263)\nCodec ID                                 : XVID\nCodec ID/Hint                            : XviD\nDuration                                 : 2h 45mn\nBit rate                                 : 674 Kbps\nWidth                                    : 640 pixels\nHeight                                   : 272 pixels\nDisplay aspect ratio                     : 2.35:1\nFrame rate                               : 19.181 fps\nOriginal frame rate                      : 19.184 fps\nColor space                              : YUV\nChroma subsampling                       : 4:2:0\nBit depth                                : 8 bits\nScan type                                : Progressive\nCompression mode                         : Lossy\nBits/(Pixel*Frame)                       : 0.202\nStream size                              : 797 MiB (83%)\nWriting library                          : XviD 1.2.1 (UTC 2008-12-04)\n\nAudio\nID                                       : 1\nFormat                                   : MPEG Audio\nFormat version                           : Version 1\nFormat profile                           : Layer 3\nMode                                     : Joint stereo\nMode extension                           : MS Stereo\nCodec ID                                 : 55\nCodec ID/Hint                            : MP3\nDuration                                 : 2h 45mn\nBit rate mode                            : Constant\nBit rate                                 : 128 Kbps\nChannel(s)                               : 2 channels\nSampling rate                            : 48.0 KHz\nCompression mode                         : Lossy\nStream size                              : 151 MiB (16%)\nAlignment                                : Aligned on interleaves\nInterleave, duration                     : 24 ms (0.46 video frame)\nInterleave, preload duration             : 192 ms\nTitle                                    : ENG - YanKeeS\nWriting library                          : LAME3.99r\nEncoding settings                        : -m j -V 4 -q 2 -lowpass 17 -b 128\n\n","torrent":{"xt":"urn:btih:bad77af8bc07bb63bc87ea32c7e111899292047a","amp;dn":"Django.Livre.Unchained2012DVDSCR.XviD-YanKeeS","amp;tr":["udp%3A%2F%2Ftracker.openbittorrent.com%3A80","udp%3A%2F%2Fopen.demonii.com%3A1337","udp%3A%2F%2Ftracker.coppersurfer.tk%3A6969","udp%3A%2F%2Fexodus.desync.com%3A6969"],"infoHash":"bad77af8bc07bb63bc87ea32c7e111899292047a","infoHashBuffer":{"type":"Buffer","data":[186,215,122,248,188,7,187,99,188,135,234,50,199,225,17,137,146,146,4,122]},"announce":[],"urlList":[]}}